<svg xmlns="http://www.w3.org/2000/svg" viewBox="0 0 36.61 37.8"><defs><style>.cls-1,.cls-3{fill:none;stroke:#5c3169;stroke-miterlimit:10;}.cls-2{fill:#5c3169;}.cls-3{stroke-linecap:round;}</style></defs><title>icon_calendar</title><g id="Layer_2" data-name="Layer 2"><g id="TAO_Home" data-name="TAO Home"><rect class="cls-1" x="0.5" y="3.91" width="35.61" height="33.39" rx="5.03"/><rect class="cls-2" x="7.48" width="4.19" height="9" rx="2.09"/><rect class="cls-2" x="24.93" width="4.19" height="9" rx="2.09"/><rect class="cls-1" x="0.5" y="11.47" width="35.61" height="0.01"/><circle class="cls-2" cx="29.82" cy="17.06" r="1.4"/><circle class="cls-2" cx="7.54" cy="23.34" r="1.4"/><circle class="cls-2" cx="15.06" cy="23.34" r="1.4"/><circle class="cls-2" cx="22.36" cy="23.34" r="1.4"/><circle class="cls-2" cx="29.82" cy="23.34" r="1.4"/><circle class="cls-2" cx="7.54" cy="29.62" r="1.4"/><circle class="cls-2" cx="15.06" cy="29.62" r="1.4"/><circle class="cls-2" cx="22.36" cy="29.62" r="1.4"/><circle class="cls-2" cx="29.82" cy="29.62" r="1.4"/><line class="cls-3" x1="5.97" y1="15.66" x2="9.11" y2="18.8"/><line class="cls-3" x1="5.97" y1="18.8" x2="9.11" y2="15.66"/><line class="cls-3" x1="13.49" y1="15.66" x2="16.63" y2="18.8"/><line class="cls-3" x1="13.49" y1="18.8" x2="16.63" y2="15.66"/><line class="cls-3" x1="20.78" y1="15.66" x2="23.93" y2="18.8"/><line class="cls-3" x1="20.78" y1="18.8" x2="23.93" y2="15.66"/></g></g></svg>