<svg xmlns="http://www.w3.org/2000/svg" viewBox="0 0 43.59 43.59"><defs><style>.cls-1{fill:#fff;}.cls-2{fill:#fbbc05;}.cls-3{fill:#4285f4;}.cls-4{fill:#34a853;}.cls-5{fill:#ea4335;}</style></defs><title>Asset 2</title><g id="Layer_2" data-name="Layer 2"><g id="TAO_Home" data-name="TAO Home"><g id="_2_reserva_copy" data-name="2 reserva copy"><g id="_3_loguin" data-name="3 loguin"><circle class="cls-1" cx="21.8" cy="21.8" r="21.8"/><path class="cls-2" d="M13.7,22.45a8.78,8.78,0,0,1,.5-2.92L10,16.26a13.92,13.92,0,0,0,0,12.45l4.29-3.06A8.52,8.52,0,0,1,13.7,22.45Z"/><path class="cls-3" d="M36.36,22.45a13.35,13.35,0,0,0-.19-2.29H22.55v5h8.22a8.72,8.72,0,0,1-3.65,4.71l4.19,3.34A13.87,13.87,0,0,0,36.36,22.45Z"/><path class="cls-4" d="M22.45,36.36a13.87,13.87,0,0,0,8.86-3.18l-4.19-3.34a8.73,8.73,0,0,1-12.81-4.19L10,28.71A13.9,13.9,0,0,0,22.45,36.36Z"/><path class="cls-5" d="M14.2,19.53a8.74,8.74,0,0,1,13.66-4l3.95-3.43A13.92,13.92,0,0,0,10,16.26Z"/></g></g></g></g></svg>