<?xml version="1.0" encoding="utf-8"?>
<!-- Generator: Adobe Illustrator 23.0.2, SVG Export Plug-In . SVG Version: 6.00 Build 0)  -->
<svg version="1.1" id="Layer_1" xmlns="http://www.w3.org/2000/svg" xmlns:xlink="http://www.w3.org/1999/xlink" x="0px" y="0px"
	 viewBox="0 0 172.4 132.6" style="enable-background:new 0 0 172.4 132.6;" xml:space="preserve">
<style type="text/css">
	.st0{fill:#FFFFFF;}
</style>
<title>icon_ok_2</title>
<g>
	<g id="TAO_Home">
		<path class="st0" d="M0.2,66.2c-0.7-3.2,1.1-5.4,3-7.4c4.9-5.1,9.9-10.1,14.9-15c5.3-5.1,10.9-4.9,16.1,0.3
			c9.4,9.4,19,18.7,28.2,28.3c2.9,3,4.6,3,7.5,0.1C92.4,49.9,114.8,27.4,137.4,5c6.7-6.7,11.2-6.7,17.9-0.2
			c4.3,4.2,8.6,8.4,12.7,12.7c6,6.2,5.9,11.2,0,17.2c-31.1,31.1-62.2,62.2-93.2,93.3c-6.1,6.1-11.4,6.1-17.6-0.1
			C39.6,110.4,22,92.8,4.5,75.2C2.1,72.8-0.5,70.3,0.2,66.2z"/>
	</g>
</g>
</svg>
