<?xml version="1.0" encoding="utf-8"?>
<!-- Generator: Adobe Illustrator 23.0.2, SVG Export Plug-In . SVG Version: 6.00 Build 0)  -->
<svg version="1.1" id="Layer_1" xmlns="http://www.w3.org/2000/svg" xmlns:xlink="http://www.w3.org/1999/xlink" x="0px" y="0px"
	 viewBox="0 0 46.5 160" style="enable-background:new 0 0 46.5 160;" xml:space="preserve">
<style type="text/css">
	.st0{fill:#FFFFFF;}
</style>
<title>icon_ko_1</title>
<g>
	<g id="TAO_Home">
		<path class="st0" d="M35.9,105H10.5c-3.8,0-6.9-3-7.1-6.8L0,7.3C-0.2,3.4,2.9,0.2,6.8,0C6.9,0,7,0,7.1,0h32.3
			c3.9,0,7.1,3.2,7.1,7.1c0,0.1,0,0.2,0,0.3L43,98.2C42.9,102,39.7,105,35.9,105z"/>
		<path class="st0" d="M11.5,119H35c5.4,0,9.8,4.4,9.8,9.8v21.5c0,5.4-4.4,9.8-9.8,9.8H11.5c-5.4,0-9.8-4.4-9.8-9.8v-21.5
			C1.7,123.4,6.1,119,11.5,119z"/>
	</g>
</g>
</svg>
